<mxfile host="app.diagrams.net" modified="2023-10-22T04:34:56.525Z" agent="Mozilla/5.0 (Windows NT 10.0; Win64; x64) AppleWebKit/537.36 (KHTML, like Gecko) Chrome/118.0.0.0 Safari/537.36" etag="-iFnwB1hYHKu8Z3lRUMC" version="22.0.6" type="github">
  <diagram name="第 1 页" id="A-9dhl8txVm8QPDb1R0J">
    <mxGraphModel dx="2953" dy="1917" grid="1" gridSize="10" guides="1" tooltips="1" connect="1" arrows="1" fold="1" page="1" pageScale="1" pageWidth="827" pageHeight="1169" math="0" shadow="0">
      <root>
        <mxCell id="0" />
        <mxCell id="1" parent="0" />
        <mxCell id="HfhqxR9ILK057CA5Awt6-39" value="" style="group" vertex="1" connectable="0" parent="1">
          <mxGeometry x="-2350" y="-1030" width="360" height="70" as="geometry" />
        </mxCell>
        <mxCell id="HfhqxR9ILK057CA5Awt6-7" value="影片編號" style="rounded=0;whiteSpace=wrap;html=1;strokeWidth=2;fillColor=#dae8fc;strokeColor=#6c8ebf;fontSize=16;fontStyle=4" vertex="1" parent="HfhqxR9ILK057CA5Awt6-39">
          <mxGeometry y="40" width="90" height="30" as="geometry" />
        </mxCell>
        <mxCell id="HfhqxR9ILK057CA5Awt6-15" value="&lt;font style=&quot;font-size: 18px;&quot;&gt;影片&lt;/font&gt;" style="text;strokeColor=none;align=center;fillColor=none;html=1;verticalAlign=middle;whiteSpace=wrap;rounded=0;fontSize=18;fontStyle=1" vertex="1" parent="HfhqxR9ILK057CA5Awt6-39">
          <mxGeometry width="60" height="30" as="geometry" />
        </mxCell>
        <mxCell id="HfhqxR9ILK057CA5Awt6-19" value="片名" style="rounded=0;whiteSpace=wrap;html=1;strokeWidth=2;fillColor=#dae8fc;strokeColor=#6c8ebf;fontSize=16;fontStyle=0" vertex="1" parent="HfhqxR9ILK057CA5Awt6-39">
          <mxGeometry x="90" y="40" width="90" height="30" as="geometry" />
        </mxCell>
        <mxCell id="HfhqxR9ILK057CA5Awt6-20" value="租金" style="rounded=0;whiteSpace=wrap;html=1;strokeWidth=2;fillColor=#dae8fc;strokeColor=#6c8ebf;fontSize=16;fontStyle=0" vertex="1" parent="HfhqxR9ILK057CA5Awt6-39">
          <mxGeometry x="180" y="40" width="90" height="30" as="geometry" />
        </mxCell>
        <mxCell id="HfhqxR9ILK057CA5Awt6-22" value="租期" style="rounded=0;whiteSpace=wrap;html=1;strokeWidth=2;fillColor=#dae8fc;strokeColor=#6c8ebf;fontSize=16;fontStyle=0" vertex="1" parent="HfhqxR9ILK057CA5Awt6-39">
          <mxGeometry x="270" y="40" width="90" height="30" as="geometry" />
        </mxCell>
        <mxCell id="HfhqxR9ILK057CA5Awt6-40" value="" style="group" vertex="1" connectable="0" parent="1">
          <mxGeometry x="-2340" y="-840" width="360" height="70" as="geometry" />
        </mxCell>
        <mxCell id="HfhqxR9ILK057CA5Awt6-41" value="會員編號" style="rounded=0;whiteSpace=wrap;html=1;strokeWidth=2;fillColor=#dae8fc;strokeColor=#6c8ebf;fontSize=16;fontStyle=4" vertex="1" parent="HfhqxR9ILK057CA5Awt6-40">
          <mxGeometry y="40" width="90" height="30" as="geometry" />
        </mxCell>
        <mxCell id="HfhqxR9ILK057CA5Awt6-42" value="&lt;font style=&quot;font-size: 18px;&quot;&gt;會員&lt;/font&gt;" style="text;strokeColor=none;align=center;fillColor=none;html=1;verticalAlign=middle;whiteSpace=wrap;rounded=0;fontSize=18;fontStyle=1" vertex="1" parent="HfhqxR9ILK057CA5Awt6-40">
          <mxGeometry width="60" height="30" as="geometry" />
        </mxCell>
        <mxCell id="HfhqxR9ILK057CA5Awt6-43" value="姓名" style="rounded=0;whiteSpace=wrap;html=1;strokeWidth=2;fillColor=#dae8fc;strokeColor=#6c8ebf;fontSize=16;fontStyle=0" vertex="1" parent="HfhqxR9ILK057CA5Awt6-40">
          <mxGeometry x="90" y="40" width="90" height="30" as="geometry" />
        </mxCell>
        <mxCell id="HfhqxR9ILK057CA5Awt6-44" value="電話" style="rounded=0;whiteSpace=wrap;html=1;strokeWidth=2;fillColor=#dae8fc;strokeColor=#6c8ebf;fontSize=16;fontStyle=0" vertex="1" parent="HfhqxR9ILK057CA5Awt6-40">
          <mxGeometry x="180" y="40" width="90" height="30" as="geometry" />
        </mxCell>
        <mxCell id="HfhqxR9ILK057CA5Awt6-45" value="預儲金" style="rounded=0;whiteSpace=wrap;html=1;strokeWidth=2;fillColor=#dae8fc;strokeColor=#6c8ebf;fontSize=16;fontStyle=0" vertex="1" parent="HfhqxR9ILK057CA5Awt6-40">
          <mxGeometry x="270" y="40" width="90" height="30" as="geometry" />
        </mxCell>
        <mxCell id="HfhqxR9ILK057CA5Awt6-46" value="" style="group" vertex="1" connectable="0" parent="1">
          <mxGeometry x="-2280" y="-935" width="360" height="70" as="geometry" />
        </mxCell>
        <mxCell id="HfhqxR9ILK057CA5Awt6-29" value="影片編號" style="rounded=0;whiteSpace=wrap;html=1;strokeWidth=2;fillColor=#dae8fc;strokeColor=#6c8ebf;fontSize=16;fontStyle=4" vertex="1" parent="HfhqxR9ILK057CA5Awt6-46">
          <mxGeometry y="40" width="90" height="30" as="geometry" />
        </mxCell>
        <mxCell id="HfhqxR9ILK057CA5Awt6-30" value="租片" style="text;strokeColor=none;align=center;fillColor=none;html=1;verticalAlign=middle;whiteSpace=wrap;rounded=0;fontSize=18;fontStyle=1" vertex="1" parent="HfhqxR9ILK057CA5Awt6-46">
          <mxGeometry width="60" height="30" as="geometry" />
        </mxCell>
        <mxCell id="HfhqxR9ILK057CA5Awt6-31" value="還片日" style="rounded=0;whiteSpace=wrap;html=1;strokeWidth=2;fillColor=#dae8fc;strokeColor=#6c8ebf;fontSize=16;fontStyle=0" vertex="1" parent="HfhqxR9ILK057CA5Awt6-46">
          <mxGeometry x="90" y="40" width="90" height="30" as="geometry" />
        </mxCell>
        <mxCell id="HfhqxR9ILK057CA5Awt6-32" value="會員編號" style="rounded=0;whiteSpace=wrap;html=1;strokeWidth=2;fillColor=#dae8fc;strokeColor=#6c8ebf;fontSize=16;fontStyle=0" vertex="1" parent="HfhqxR9ILK057CA5Awt6-46">
          <mxGeometry x="180" y="40" width="90" height="30" as="geometry" />
        </mxCell>
        <mxCell id="HfhqxR9ILK057CA5Awt6-33" value="租期" style="rounded=0;whiteSpace=wrap;html=1;strokeWidth=2;fillColor=#dae8fc;strokeColor=#6c8ebf;fontSize=16;fontStyle=0" vertex="1" parent="HfhqxR9ILK057CA5Awt6-46">
          <mxGeometry x="270" y="40" width="90" height="30" as="geometry" />
        </mxCell>
      </root>
    </mxGraphModel>
  </diagram>
</mxfile>
